<?xml version="1.0" encoding="utf-8"?>
<!-- Generator: Adobe Illustrator 23.0.3, SVG Export Plug-In . SVG Version: 6.00 Build 0)  -->
<svg version="1.1" xmlns="http://www.w3.org/2000/svg" xmlns:xlink="http://www.w3.org/1999/xlink" x="0px" y="0px"
	 viewBox="0 0 1920 1080" style="enable-background:new 0 0 1920 1080;" xml:space="preserve">
<style type="text/css">
	.st0{fill:#6F7271;}
	.st1{fill:#AF282D;}
	.st2{fill:#7E8083;stroke:#FFFFFF;stroke-width:2;stroke-miterlimit:10;}
	.st3{fill:#AF282D;stroke:#FFFFFF;stroke-width:2;stroke-miterlimit:10;}
	.st4{fill:none;stroke:#FFFFFF;stroke-width:2;stroke-miterlimit:10;}
</style>
<g id="NAAAP">
	<g>
		<path class="st0" d="M813.34,770.95v177.07h-5.5L689.48,770.15h-0.53v171.14h30.42v6.73h-63.92v-6.73h26.66V770.95h-28.54v-6.84
			h68.63l83.77,126h0.54V770.95h-29.76v-6.84h63.8v6.84H813.34z"/>
		<path class="st0" d="M907.81,892.08H850.7l-18.36,49.2h33.25v6.83h-57.74l-4.54-6.83h21.93l65.56-177.08h4.15l62.86,177.08
			l0.7,1.67l7.47,2.03l-53.15,1.6l2.24-2.35l10.3-2.95L907.81,892.08z M853.26,885.25h52.13l-25.33-71.98h-0.53L853.26,885.25z"/>
		<path class="st0" d="M1120.83,892.08h-57.11l-18.36,49.2l17.51,2.53l9.82,2.35l-55.18,0.53l18.89-4.16l1.84-1.24l65.55-177.08
			h4.15l62.88,177.08h24.13v6.83h-85.66v-6.83h29.08L1120.83,892.08z M1066.28,885.25h52.14l-25.33-71.98h-0.53L1066.28,885.25z"/>
		<path class="st0" d="M1223.07,863.91v77.2h29.76v7h-91.61v-7h29.22V771.2h-29.22v-6.99h94.76c21.4,0,37.51,4.76,48.35,14.26
			c10.82,9.51,16.24,21.21,16.24,35.11c0,14.26-5.46,26.22-16.39,35.87c-10.91,9.64-29.09,14.46-54.5,14.46H1223.07z M1223.07,771.2
			v85.58h17.69c9.23,0,16.91-0.79,23.04-2.33c6.12-1.55,11.4-5.66,15.84-12.34c4.44-6.68,8.9-16.5,8.9-30.49
			c0-12.33-4.2-21.92-8.08-27.72c-3.88-5.81-8.48-9.37-13.78-10.7c-5.3-1.32-11.88-1.99-19.74-1.99H1223.07z"/>
		<path class="st1" d="M1014.32,892.08h-57.1l-18.36,49.2h33.24v6.83h-65.15v-6.83h24.81l65.54-177.08h4.16l62.86,177.08h24.14v6.83
			h-85.66v-6.83h29.09L1014.32,892.08z M959.76,885.25h52.14l-25.33-71.98h-0.53L959.76,885.25z"/>
	</g>
	<g>
		<path class="st1" d="M822.26,988.67h37.18v6.95h-14.6v38.98h-8.04v-38.98h-14.54V988.67z"/>
		<path class="st1" d="M885.17,1027.2c0,1.8,0.39,2.51,1.74,2.51c0.45,0,1.03,0,1.8-0.13v5.08c-1.09,0.39-3.41,0.84-4.63,0.84
			c-2.96,0-5.08-1.03-5.66-4.05c-2.9,2.83-7.59,4.05-11.52,4.05c-5.98,0-11.39-3.22-11.39-9.71c0-8.3,6.63-9.65,12.8-10.36
			c5.28-0.96,9.97-0.39,9.97-4.7c0-3.79-3.92-4.5-6.88-4.5c-4.12,0-7.01,1.67-7.33,5.28h-7.33c0.51-8.56,7.78-11.07,15.12-11.07
			c6.5,0,13.32,2.64,13.32,9.65V1027.2z M877.84,1017.94c-2.25,1.48-5.79,1.42-9.01,1.99c-3.15,0.52-5.98,1.67-5.98,5.53
			c0,3.28,4.18,4.25,6.75,4.25c3.22,0,8.23-1.67,8.23-6.3V1017.94z"/>
		<path class="st1" d="M893.09,1001.34h6.95v4.63h0.19c2.19-3.28,4.95-5.53,10.23-5.53c4.05,0,7.85,1.74,9.33,5.53
			c2.44-3.41,5.6-5.53,10.42-5.53c7.01,0,11.13,3.09,11.13,11.2v22.96H934v-19.43c0-5.28-0.32-8.94-6.05-8.94
			c-4.95,0-7.08,3.28-7.08,8.88v19.49h-7.33v-21.36c0-4.57-1.42-7.01-5.85-7.01c-3.8,0-7.27,3.09-7.27,8.62v19.75h-7.33V1001.34z"/>
		<path class="st1" d="M949.25,1001.34h6.95v4.5h0.13c2.06-3.79,6.05-5.4,10.29-5.4c10.49,0,15.57,7.98,15.57,17.69
			c0,8.94-4.5,17.37-14.35,17.37c-4.25,0-8.81-1.54-11.13-5.21h-0.13v16.6h-7.33V1001.34z M965.65,1006.23
			c-6.18,0-9.33,4.7-9.33,11.77c0,6.69,3.41,11.71,9.33,11.71c6.69,0,9.2-5.92,9.2-11.71
			C974.85,1011.96,971.7,1006.23,965.65,1006.23z"/>
		<path class="st1" d="M1016.21,1027.2c0,1.8,0.39,2.51,1.74,2.51c0.45,0,1.03,0,1.8-0.13v5.08c-1.09,0.39-3.41,0.84-4.63,0.84
			c-2.96,0-5.08-1.03-5.66-4.05c-2.89,2.83-7.59,4.05-11.51,4.05c-5.98,0-11.39-3.22-11.39-9.71c0-8.3,6.63-9.65,12.8-10.36
			c5.28-0.96,9.97-0.39,9.97-4.7c0-3.79-3.92-4.5-6.88-4.5c-4.12,0-7.01,1.67-7.33,5.28h-7.33c0.51-8.56,7.78-11.07,15.12-11.07
			c6.5,0,13.32,2.64,13.32,9.65V1027.2z M1008.88,1017.94c-2.25,1.48-5.79,1.42-9.01,1.99c-3.15,0.52-5.98,1.67-5.98,5.53
			c0,3.28,4.18,4.25,6.75,4.25c3.22,0,8.23-1.67,8.23-6.3V1017.94z"/>
		<path class="st1" d="M1043.04,988.67h22.32c8.23,0,13.64,3.73,13.64,11.39c0,4.63-2.38,7.98-6.56,9.78v0.13
			c5.6,1.22,8.62,5.6,8.62,11.84c0,7.21-5.02,12.8-16.92,12.8h-21.1V988.67z M1051.08,1007.9h13.12c3.86,0,6.75-2.25,6.75-6.37
			c0-4.63-2.38-6.3-6.75-6.3h-13.12V1007.9z M1051.08,1028.04h14.22c4.89,0,7.72-2.64,7.72-7.27c0-4.5-2.83-7.08-7.72-7.08h-14.22
			V1028.04z"/>
		<path class="st1" d="M1115.15,1027.2c0,1.8,0.39,2.51,1.74,2.51c0.45,0,1.03,0,1.8-0.13v5.08c-1.09,0.39-3.41,0.84-4.63,0.84
			c-2.96,0-5.08-1.03-5.66-4.05c-2.89,2.83-7.59,4.05-11.51,4.05c-5.98,0-11.39-3.22-11.39-9.71c0-8.3,6.63-9.65,12.8-10.36
			c5.28-0.96,9.97-0.39,9.97-4.7c0-3.79-3.92-4.5-6.88-4.5c-4.12,0-7.01,1.67-7.33,5.28h-7.33c0.51-8.56,7.78-11.07,15.12-11.07
			c6.5,0,13.32,2.64,13.32,9.65V1027.2z M1107.82,1017.94c-2.25,1.48-5.79,1.42-9.01,1.99c-3.15,0.52-5.98,1.67-5.98,5.53
			c0,3.28,4.18,4.25,6.75,4.25c3.22,0,8.23-1.67,8.23-6.3V1017.94z"/>
		<path class="st1" d="M1119.4,1001.34h8.04l8.68,24.83h0.13l8.43-24.83h7.66l-12.93,35.06c-2.38,5.98-4.12,11.39-11.77,11.39
			c-1.74,0-3.41-0.13-5.08-0.38v-6.18c1.16,0.19,2.32,0.45,3.47,0.45c3.41,0,4.25-1.8,5.15-4.63l0.84-2.57L1119.4,1001.34z"/>
	</g>
</g>
<g id="Ship_1_">
	<g id="Post">
		<rect x="984.28" y="83.88" class="st2" width="5.89" height="377.78"/>
	</g>
	<g id="Sail_Large">
		<path class="st3" d="M891.25,422.06l15.4-224.68l148.58-107.37c0,0,11.11,15.77,15.21,19.42c4.25,3.78,18.2,10.26,18.2,10.26
			s5.29,17.69,8.35,22.88c3.04,5.15,16.07,18.46,16.07,18.46s0.03,20.47,1.71,26.85c1.53,5.81,11.14,21.88,11.14,21.88
			s-1.11,24.46,0.01,32.49c0.82,5.9,7.71,23.26,7.71,23.26s-3.2,20.83-3.2,27.49c0,6.24,3.2,24.12,3.2,24.12s-4.62,19.22-4.62,25.07
			c0,7.37,4.62,27.78,4.62,27.78s-5.99,20.67-6.91,28.14c-0.68,5.55,0.49,23.93,0.49,23.93H891.25z"/>
		<line class="st4" x1="1088.65" y1="119.69" x2="904.27" y2="232.16"/>
		<line class="st4" x1="1113.07" y1="161.03" x2="901.81" y2="267.98"/>
		<line class="st4" x1="1125.92" y1="209.76" x2="899.37" y2="303.62"/>
		<line class="st4" x1="1133.63" y1="369.98" x2="893.19" y2="393.8"/>
		<line class="st4" x1="1133.63" y1="317.12" x2="895.36" y2="362.06"/>
		<line class="st4" x1="1133.63" y1="265.51" x2="897.26" y2="334.36"/>
	</g>
	<g id="Layer_11">
		<rect x="984.28" y="170.28" class="st2" width="5.89" height="288.21"/>
	</g>
	<g id="Sail_Small">
		<path class="st3" d="M924.22,402.26l11.68-162.75l112.66-77.77c0,0,8.43,11.43,11.54,14.07c3.22,2.74,13.8,7.43,13.8,7.43
			s4.01,12.81,6.33,16.57c2.3,3.73,12.18,13.37,12.18,13.37s0.03,14.83,1.3,19.45c1.16,4.21,8.44,15.85,8.44,15.85
			s-0.84,17.72,0,23.54c0.62,4.28,5.84,16.85,5.84,16.85s-2.43,15.09-2.43,19.91c0,4.52,2.43,17.47,2.43,17.47
			s-3.51,13.92-3.51,18.16c0,5.34,3.51,20.13,3.51,20.13s-4.54,14.97-5.24,20.38c-0.52,4.02,0.37,17.34,0.37,17.34H924.22z"/>
		<line class="st4" x1="1073.9" y1="183.24" x2="934.1" y2="264.71"/>
		<line class="st4" x1="1092.42" y1="213.19" x2="932.23" y2="290.66"/>
		<line class="st4" x1="1102.16" y1="248.49" x2="930.38" y2="316.48"/>
		<line class="st4" x1="1108.01" y1="364.54" x2="925.69" y2="381.79"/>
		<line class="st4" x1="1108.01" y1="326.25" x2="927.34" y2="358.81"/>
		<line class="st4" x1="1108.01" y1="288.87" x2="928.78" y2="338.74"/>
	</g>
	<g id="Flag">
		<path class="st3" d="M984.28,108.14c0,0-18.96,5.04-26.33,5.03c-10.92,0-28.09-7.14-38.97-7.48c-7.97-0.25-28.81,5.28-28.81,5.28
			l17.34-14.62l-17.34-6.34c0,0,20.84-5.52,28.81-5.28c10.88,0.34,28.05,7.47,38.97,7.48c7.37,0,26.33-5.03,26.33-5.03"/>
	</g>
	<g id="Body">
		<polyline class="st2" points="1050.23,489.69 1050.23,454.58 1025.32,444.67 987.23,444.67 949.13,444.67 924.22,454.58 
			924.22,489.69 		"/>
		<path class="st2" d="M987.23,456.28c0,0,3.53,3.01,8.61,8.41c16.83,17.88,59.57,22.17,83.83,29.99
			c8.76,2.82-1.17,45.73-3.93,51.79c-5.94,13.04-10.09,18.11-16.04,25.48c-5.53,6.84-73.37,31.15-73.37,31.15
			s-66.03-24.31-71.56-31.15c-5.95-7.37-10.1-12.44-16.04-25.48c-2.76-6.07-12.69-48.97-3.93-51.79c24.26-7.82,67-12.11,83.83-29.99
			C983.7,459.29,987.23,456.28,987.23,456.28z"/>
	</g>
</g>
<g id="Lightning_1_">
	<g transform="translate(0.000000,1280.000000) scale(0.100000,-0.100000)">
		<path class="st3" d="M6538.12,8300.23c0,0,460.44-194.28,1017.9-428.84c557.95-234.86,1086.44-457.32,1174.79-494.5l160.93-67.71
			l-51.92-93.04l-51.96-93.1l1147.29-452.25c630.67-248.53,1147.7-452.67,1149.04-453.72c2.28-1.69-69.81-104.36-96.68-138.56
			c-8.37-10.79-12.65-19.1-9.84-21.01c2.32-1.63,97.56-32.73,211.45-68.97c113.85-36.3,610.26-194.32,1103.31-351.36
			s897.14-285.69,897.74-285.79c5.94-1.07-40.11,19.9-244.89,111.18c-129.96,57.89-510.37,227.54-845.1,376.71l-609.11,271.57
			l5.89,16.58c3.37,9.01,13.87,35.56,23.75,58.84c10.36,22.99,18.45,43.27,18.67,44.75c0.22,2.58-26.47,14.1-695.47,302.14
			c-624.52,268.86-1501.74,646.83-1503.19,647.69c-0.49,0.29,1.18,6.42,3.06,14.02c1.92,7.67,6.14,22.53,9.25,33.31
			c2.59,11,10.51,38.75,17.02,61.91c17.36,60.26,22.79,83.81,20.54,85.57c-0.86,0.76-2854.89,1243.12-2854.89,1243.12
			L6538.12,8300.23z"/>
	</g>
	<g transform="translate(0.000000,1280.000000) scale(0.100000,-0.100000)">
		<path class="st3" d="M13190.66,8618.76c0,0-2854.03-1242.36-2854.89-1243.12c-2.24-1.76,3.18-25.3,20.54-85.57
			c6.51-23.16,14.43-50.9,17.02-61.91c3.11-10.78,7.33-25.64,9.25-33.31c1.88-7.61,3.55-13.73,3.06-14.02
			c-1.46-0.87-878.67-378.84-1503.19-647.69c-669-288.05-695.69-299.56-695.47-302.14c0.22-1.48,8.31-21.75,18.67-44.75
			c9.87-23.28,20.37-49.83,23.75-58.84l5.89-16.58l-609.11-271.57c-334.74-149.16-715.15-318.82-845.1-376.71
			c-204.78-91.28-250.83-112.25-244.89-111.18c0.6,0.1,404.69,128.75,897.74,285.79s989.47,315.06,1103.31,351.36
			c113.88,36.24,209.13,67.34,211.45,68.97c2.8,1.92-1.47,10.23-9.84,21.01c-26.87,34.2-98.96,136.87-96.68,138.56
			c1.35,1.05,518.37,205.19,1149.04,453.72l1147.29,452.25l-51.96,93.1l-51.92,93.04l160.93,67.71
			c88.35,37.18,616.85,259.64,1174.79,494.5c557.46,234.57,1017.9,428.84,1017.9,428.84L13190.66,8618.76z"/>
	</g>
</g>
</svg>
