<svg id="Layer_1" data-name="Layer 1" xmlns="http://www.w3.org/2000/svg" viewBox="0 0 612 792"><defs><style>.cls-1{fill:#7e8083;}.cls-2{fill:#b5121b;}</style></defs><title>Artboard 2SVG</title><path class="cls-1" d="M174.82,391.43h3.46l8.55,13.79h0V391.43H190v18.72h-3.47L178,396.38h-.08v13.77h-3.12Z"/><path class="cls-1" d="M204.56,407.14a1.55,1.55,0,0,0,.15.79.61.61,0,0,0,.56.23h.32a2.37,2.37,0,0,0,.42-.05v2.07l-.41.12-.51.12-.53.08-.44,0a2.83,2.83,0,0,1-1.52-.37,1.78,1.78,0,0,1-.79-1.28,5.24,5.24,0,0,1-2.19,1.26,8.72,8.72,0,0,1-2.51.39,6,6,0,0,1-1.75-.25,4.45,4.45,0,0,1-1.48-.73,3.61,3.61,0,0,1-1-1.23,3.86,3.86,0,0,1-.38-1.75,4,4,0,0,1,.46-2.05,3.48,3.48,0,0,1,1.21-1.23,5.38,5.38,0,0,1,1.68-.64c.62-.13,1.24-.23,1.87-.3s1.06-.18,1.55-.23a6.63,6.63,0,0,0,1.3-.22,2,2,0,0,0,.89-.48,1.34,1.34,0,0,0,.33-1,1.48,1.48,0,0,0-.28-.94,1.87,1.87,0,0,0-.68-.57,3.12,3.12,0,0,0-.91-.26,7.78,7.78,0,0,0-.94-.06,3.74,3.74,0,0,0-2.07.52,2.05,2.05,0,0,0-.92,1.63h-3a4.45,4.45,0,0,1,.63-2.18,4.32,4.32,0,0,1,1.4-1.39,5.73,5.73,0,0,1,1.93-.73,11.47,11.47,0,0,1,2.2-.21,9.28,9.28,0,0,1,2,.21,5.51,5.51,0,0,1,1.75.68,3.71,3.71,0,0,1,1.24,1.22,3.29,3.29,0,0,1,.47,1.82Zm-3-3.78a3.55,3.55,0,0,1-1.68.54c-.66.06-1.32.15-2,.27a7.28,7.28,0,0,0-.92.23,2.48,2.48,0,0,0-.78.39,1.68,1.68,0,0,0-.54.66,2.25,2.25,0,0,0-.2,1,1.28,1.28,0,0,0,.29.84,2,2,0,0,0,.7.54,3.08,3.08,0,0,0,.89.27,5.75,5.75,0,0,0,.88.08,4.66,4.66,0,0,0,1.07-.13,3.59,3.59,0,0,0,1.09-.45,2.82,2.82,0,0,0,.85-.8,2,2,0,0,0,.34-1.19Z"/><path class="cls-1" d="M206.16,396.59h2.26v-4.06h3v4.06h2.7v2.23h-2.7v7.24a6.5,6.5,0,0,0,0,.82,1.53,1.53,0,0,0,.18.57.88.88,0,0,0,.44.36,2.28,2.28,0,0,0,.78.12l.63,0a3.42,3.42,0,0,0,.63-.09v2.31l-1,.1a7.66,7.66,0,0,1-1,.06,6.51,6.51,0,0,1-1.9-.23,2.54,2.54,0,0,1-1.13-.65,2.35,2.35,0,0,1-.55-1.09,8.16,8.16,0,0,1-.17-1.5v-8h-2.26Z"/><path class="cls-1" d="M216.08,391.43h3v2.83h-3Zm0,5.16h3v13.56h-3Z"/><path class="cls-1" d="M228.27,410.52a7.3,7.3,0,0,1-2.89-.54,6,6,0,0,1-2.15-1.48,6.21,6.21,0,0,1-1.34-2.25,8.63,8.63,0,0,1-.46-2.89,8.54,8.54,0,0,1,.46-2.86,6.17,6.17,0,0,1,3.49-3.74,8.17,8.17,0,0,1,5.79,0,6.17,6.17,0,0,1,3.49,3.74,8.54,8.54,0,0,1,.46,2.86,8.63,8.63,0,0,1-.46,2.89,6.21,6.21,0,0,1-1.34,2.25,6,6,0,0,1-2.15,1.48A7.32,7.32,0,0,1,228.27,410.52Zm0-2.36a3.45,3.45,0,0,0,1.74-.42,3.62,3.62,0,0,0,1.2-1.1,4.7,4.7,0,0,0,.7-1.54,6.69,6.69,0,0,0,.22-1.74,6.84,6.84,0,0,0-.22-1.73,4.61,4.61,0,0,0-.7-1.54A3.67,3.67,0,0,0,230,399a3.79,3.79,0,0,0-3.47,0,3.67,3.67,0,0,0-1.2,1.08,4.61,4.61,0,0,0-.7,1.54,6.84,6.84,0,0,0-.22,1.73,6.69,6.69,0,0,0,.22,1.74,4.7,4.7,0,0,0,.7,1.54,3.62,3.62,0,0,0,1.2,1.1A3.44,3.44,0,0,0,228.27,408.16Z"/><path class="cls-1" d="M237.35,396.59h2.83v2l.06.05a5,5,0,0,1,1.78-1.77,4.73,4.73,0,0,1,2.44-.64,5,5,0,0,1,3.51,1.15,4.4,4.4,0,0,1,1.29,3.46v9.31h-3v-8.52a3.7,3.7,0,0,0-.68-2.32,2.49,2.49,0,0,0-2-.72,3.27,3.27,0,0,0-1.36.27,3,3,0,0,0-1,.76,3.56,3.56,0,0,0-.65,1.14,4.06,4.06,0,0,0-.24,1.39v8h-3Z"/><path class="cls-1" d="M263.5,407.14a1.55,1.55,0,0,0,.15.79.61.61,0,0,0,.56.23h.32a2.37,2.37,0,0,0,.42-.05v2.07l-.41.12-.51.12-.53.08-.44,0a2.81,2.81,0,0,1-1.52-.37,1.78,1.78,0,0,1-.79-1.28,5.3,5.3,0,0,1-2.19,1.26,8.72,8.72,0,0,1-2.51.39,6,6,0,0,1-1.76-.25,4.65,4.65,0,0,1-1.48-.73,3.58,3.58,0,0,1-1-1.23,3.86,3.86,0,0,1-.38-1.75,4,4,0,0,1,.46-2.05,3.4,3.4,0,0,1,1.21-1.23,5.23,5.23,0,0,1,1.67-.64c.63-.13,1.25-.23,1.88-.3s1.06-.18,1.55-.23a6.63,6.63,0,0,0,1.3-.22,2,2,0,0,0,.89-.48,1.34,1.34,0,0,0,.33-1,1.54,1.54,0,0,0-.28-.94,1.87,1.87,0,0,0-.68-.57,3.21,3.21,0,0,0-.91-.26,7.78,7.78,0,0,0-.94-.06,3.74,3.74,0,0,0-2.07.52,2,2,0,0,0-.92,1.63h-3a4.45,4.45,0,0,1,.63-2.18,4.32,4.32,0,0,1,1.4-1.39,5.73,5.73,0,0,1,1.93-.73,11.47,11.47,0,0,1,2.2-.21,9.28,9.28,0,0,1,2,.21,5.36,5.36,0,0,1,1.74.68,3.65,3.65,0,0,1,1.25,1.22,3.37,3.37,0,0,1,.47,1.82Zm-3-3.78a3.55,3.55,0,0,1-1.68.54c-.66.06-1.33.15-2,.27a6.87,6.87,0,0,0-.92.23,2.54,2.54,0,0,0-.79.39,1.74,1.74,0,0,0-.53.66,2.25,2.25,0,0,0-.2,1,1.28,1.28,0,0,0,.29.84,2,2,0,0,0,.69.54,3.15,3.15,0,0,0,.9.27,5.73,5.73,0,0,0,.87.08,4.74,4.74,0,0,0,1.08-.13,3.7,3.7,0,0,0,1.09-.45,2.82,2.82,0,0,0,.85-.8,2,2,0,0,0,.34-1.19Z"/><path class="cls-1" d="M266.54,391.43h3v18.72h-3Z"/><path class="cls-1" d="M285,391.43h3.48l7.22,18.72h-3.52l-1.76-4.95h-7.47l-1.76,4.95H277.8Zm-1.16,11.27h5.72l-2.81-8.05h-.08Z"/><path class="cls-1" d="M299,405.8a2.27,2.27,0,0,0,1,1.84,3.93,3.93,0,0,0,2.07.52,8.8,8.8,0,0,0,1-.06,4.53,4.53,0,0,0,1-.25,1.86,1.86,0,0,0,.76-.53,1.23,1.23,0,0,0,.29-.84s0-.15,0-.36a1.09,1.09,0,0,0-.41-.69,3,3,0,0,0-1-.59,10.39,10.39,0,0,0-1.4-.38c-.53-.1-1.06-.21-1.6-.34a13.09,13.09,0,0,1-1.61-.45,5.4,5.4,0,0,1-1.4-.7,3.38,3.38,0,0,1-1-1.14,3.74,3.74,0,0,1-.37-1.72,3.07,3.07,0,0,1,.54-1.85,4.1,4.1,0,0,1,1.37-1.21,6,6,0,0,1,1.83-.64,11,11,0,0,1,1.93-.18,8.78,8.78,0,0,1,2,.22,5.65,5.65,0,0,1,1.73.72,4.29,4.29,0,0,1,1.28,1.3,4.41,4.41,0,0,1,.64,1.93h-3.12a1.83,1.83,0,0,0-1-1.44,4,4,0,0,0-1.77-.37,5.41,5.41,0,0,0-.75.05,3,3,0,0,0-.81.2,1.57,1.57,0,0,0-.64.41,1,1,0,0,0-.27.73,1.16,1.16,0,0,0,.38.89,3.08,3.08,0,0,0,1,.56,9.1,9.1,0,0,0,1.4.38l1.63.34c.54.13,1.08.28,1.6.45a5.27,5.27,0,0,1,1.4.71,3.25,3.25,0,0,1,1.38,2.81,3.62,3.62,0,0,1-.55,2,4.46,4.46,0,0,1-1.43,1.37,6.66,6.66,0,0,1-1.95.76,10.43,10.43,0,0,1-2.13.23,9.27,9.27,0,0,1-2.37-.29,5.32,5.32,0,0,1-1.89-.88,4.26,4.26,0,0,1-1.26-1.47,4.47,4.47,0,0,1-.48-2.08Z"/><path class="cls-1" d="M312.4,405.8a2.26,2.26,0,0,0,1,1.84,3.93,3.93,0,0,0,2.07.52,8.8,8.8,0,0,0,1-.06,4.53,4.53,0,0,0,1-.25,1.86,1.86,0,0,0,.76-.53,1.28,1.28,0,0,0,.29-.84s0-.15,0-.36a1.09,1.09,0,0,0-.41-.69,3,3,0,0,0-1-.59,10.39,10.39,0,0,0-1.4-.38c-.53-.1-1.06-.21-1.6-.34a13.76,13.76,0,0,1-1.62-.45A5.49,5.49,0,0,1,311,403a3.38,3.38,0,0,1-1-1.14,3.74,3.74,0,0,1-.37-1.72,3.07,3.07,0,0,1,.54-1.85,4.1,4.1,0,0,1,1.37-1.21,6,6,0,0,1,1.83-.64,11.1,11.1,0,0,1,1.93-.18,8.78,8.78,0,0,1,2,.22,5.65,5.65,0,0,1,1.73.72,4.29,4.29,0,0,1,1.28,1.3,4.55,4.55,0,0,1,.65,1.93H317.9a1.83,1.83,0,0,0-1-1.44,4,4,0,0,0-1.77-.37,5.41,5.41,0,0,0-.75.05,3,3,0,0,0-.81.2,1.57,1.57,0,0,0-.64.41,1,1,0,0,0-.27.73,1.16,1.16,0,0,0,.38.89,3.08,3.08,0,0,0,1,.56,9.1,9.1,0,0,0,1.4.38l1.63.34c.54.13,1.08.28,1.6.45a5.27,5.27,0,0,1,1.4.71,3.25,3.25,0,0,1,1.38,2.81,3.62,3.62,0,0,1-.55,2,4.46,4.46,0,0,1-1.43,1.37,6.66,6.66,0,0,1-1.95.76,10.43,10.43,0,0,1-2.13.23,9.33,9.33,0,0,1-2.37-.29,5.32,5.32,0,0,1-1.89-.88,4.26,4.26,0,0,1-1.26-1.47,4.47,4.47,0,0,1-.48-2.08Z"/><path class="cls-1" d="M329.71,410.52a7.35,7.35,0,0,1-2.9-.54,6,6,0,0,1-2.15-1.48,6.36,6.36,0,0,1-1.34-2.25,8.63,8.63,0,0,1-.46-2.89,8.54,8.54,0,0,1,.46-2.86,6.27,6.27,0,0,1,1.34-2.25,6.14,6.14,0,0,1,2.15-1.49,8.2,8.2,0,0,1,5.8,0,6.33,6.33,0,0,1,2.15,1.49,6.25,6.25,0,0,1,1.33,2.25,8.54,8.54,0,0,1,.46,2.86,8.63,8.63,0,0,1-.46,2.89,6.34,6.34,0,0,1-1.33,2.25,6.17,6.17,0,0,1-2.15,1.48A7.39,7.39,0,0,1,329.71,410.52Zm0-2.36a3.44,3.44,0,0,0,1.73-.42,3.76,3.76,0,0,0,1.21-1.1,4.9,4.9,0,0,0,.69-1.54,6.69,6.69,0,0,0,.22-1.74,6.84,6.84,0,0,0-.22-1.73,4.8,4.8,0,0,0-.69-1.54,3.81,3.81,0,0,0-1.21-1.08,3.77,3.77,0,0,0-3.46,0,3.71,3.71,0,0,0-1.21,1.08,4.59,4.59,0,0,0-.69,1.54,6.86,6.86,0,0,0-.23,1.73,6.7,6.7,0,0,0,.23,1.74,4.69,4.69,0,0,0,.69,1.54,3.66,3.66,0,0,0,1.21,1.1A3.41,3.41,0,0,0,329.71,408.16Z"/><path class="cls-1" d="M347.94,401.13a2.84,2.84,0,0,0-1-1.9,3.3,3.3,0,0,0-2.09-.64,4.34,4.34,0,0,0-1.23.19,2.92,2.92,0,0,0-1.21.74,4.36,4.36,0,0,0-.92,1.49,7.29,7.29,0,0,0-.36,2.51,7.4,7.4,0,0,0,.19,1.68,4.75,4.75,0,0,0,.63,1.49,3.34,3.34,0,0,0,1.12,1.06,3.4,3.4,0,0,0,3.82-.4,3.81,3.81,0,0,0,1.06-2.28h3a6.58,6.58,0,0,1-2,4.05,6.15,6.15,0,0,1-4.21,1.4,6.89,6.89,0,0,1-2.82-.54,5.79,5.79,0,0,1-2.06-1.47,6.27,6.27,0,0,1-1.27-2.21,8.66,8.66,0,0,1-.43-2.78,9.46,9.46,0,0,1,.42-2.86,6.51,6.51,0,0,1,1.26-2.32,5.88,5.88,0,0,1,2.08-1.55,7,7,0,0,1,2.93-.56,8.24,8.24,0,0,1,2.24.3,5.9,5.9,0,0,1,1.89.9A4.86,4.86,0,0,1,350.3,399a5.16,5.16,0,0,1,.63,2.17Z"/><path class="cls-1" d="M353.18,391.43h3v2.83h-3Zm0,5.16h3v13.56h-3Z"/><path class="cls-1" d="M370.52,407.14a1.55,1.55,0,0,0,.15.79.61.61,0,0,0,.56.23h.32a2.37,2.37,0,0,0,.42-.05v2.07l-.41.12-.51.12-.53.08-.44,0a2.81,2.81,0,0,1-1.52-.37,1.78,1.78,0,0,1-.79-1.28,5.3,5.3,0,0,1-2.19,1.26,8.72,8.72,0,0,1-2.51.39,6,6,0,0,1-1.76-.25,4.65,4.65,0,0,1-1.48-.73,3.58,3.58,0,0,1-1-1.23,3.86,3.86,0,0,1-.38-1.75,4,4,0,0,1,.46-2.05,3.48,3.48,0,0,1,1.21-1.23,5.23,5.23,0,0,1,1.67-.64c.63-.13,1.25-.23,1.88-.3s1.06-.18,1.55-.23a6.63,6.63,0,0,0,1.3-.22,2,2,0,0,0,.89-.48,1.34,1.34,0,0,0,.33-1,1.54,1.54,0,0,0-.28-.94,1.87,1.87,0,0,0-.68-.57,3.12,3.12,0,0,0-.91-.26,7.78,7.78,0,0,0-.94-.06,3.74,3.74,0,0,0-2.07.52,2,2,0,0,0-.92,1.63h-3a4.45,4.45,0,0,1,.63-2.18,4.23,4.23,0,0,1,1.4-1.39,5.73,5.73,0,0,1,1.93-.73,11.47,11.47,0,0,1,2.2-.21,9.28,9.28,0,0,1,2,.21,5.36,5.36,0,0,1,1.74.68,3.65,3.65,0,0,1,1.25,1.22,3.29,3.29,0,0,1,.47,1.82Zm-3-3.78a3.55,3.55,0,0,1-1.68.54c-.66.06-1.33.15-2,.27a6.87,6.87,0,0,0-.92.23,2.38,2.38,0,0,0-.78.39,1.68,1.68,0,0,0-.54.66,2.25,2.25,0,0,0-.2,1,1.28,1.28,0,0,0,.29.84,2,2,0,0,0,.69.54,3.18,3.18,0,0,0,.89.27,6,6,0,0,0,.88.08,4.67,4.67,0,0,0,1.08-.13,3.7,3.7,0,0,0,1.09-.45,2.82,2.82,0,0,0,.85-.8,2,2,0,0,0,.34-1.19Z"/><path class="cls-1" d="M372.12,396.59h2.26v-4.06h3v4.06h2.7v2.23h-2.7v7.24a6.5,6.5,0,0,0,0,.82,1.37,1.37,0,0,0,.18.57.9.9,0,0,0,.43.36,2.39,2.39,0,0,0,.79.12l.63,0a3.42,3.42,0,0,0,.63-.09v2.31l-1,.1a7.66,7.66,0,0,1-1,.06,6.51,6.51,0,0,1-1.9-.23,2.54,2.54,0,0,1-1.13-.65,2.26,2.26,0,0,1-.55-1.09,7.38,7.38,0,0,1-.17-1.5v-8h-2.26Z"/><path class="cls-1" d="M382,391.43h3v2.83h-3Zm0,5.16h3v13.56h-3Z"/><path class="cls-1" d="M394.23,410.52a7.3,7.3,0,0,1-2.89-.54,6,6,0,0,1-2.15-1.48,6.21,6.21,0,0,1-1.34-2.25,8.63,8.63,0,0,1-.46-2.89,8.54,8.54,0,0,1,.46-2.86,6.17,6.17,0,0,1,3.49-3.74,8.17,8.17,0,0,1,5.79,0,6.17,6.17,0,0,1,3.49,3.74,8.54,8.54,0,0,1,.46,2.86,8.63,8.63,0,0,1-.46,2.89,6.21,6.21,0,0,1-1.34,2.25,6,6,0,0,1-2.15,1.48A7.32,7.32,0,0,1,394.23,410.52Zm0-2.36a3.45,3.45,0,0,0,1.74-.42,3.62,3.62,0,0,0,1.2-1.1,4.7,4.7,0,0,0,.7-1.54,6.69,6.69,0,0,0,.22-1.74,6.84,6.84,0,0,0-.22-1.73,4.61,4.61,0,0,0-.7-1.54A3.67,3.67,0,0,0,396,399a3.79,3.79,0,0,0-3.47,0,3.67,3.67,0,0,0-1.2,1.08,4.61,4.61,0,0,0-.7,1.54,6.84,6.84,0,0,0-.22,1.73,6.69,6.69,0,0,0,.22,1.74,4.7,4.7,0,0,0,.7,1.54,3.62,3.62,0,0,0,1.2,1.1A3.44,3.44,0,0,0,394.23,408.16Z"/><path class="cls-1" d="M403.31,396.59h2.83v2l.05.05a5.06,5.06,0,0,1,1.79-1.77,4.73,4.73,0,0,1,2.44-.64,5.05,5.05,0,0,1,3.51,1.15,4.4,4.4,0,0,1,1.29,3.46v9.31h-3v-8.52a3.7,3.7,0,0,0-.68-2.32,2.49,2.49,0,0,0-2-.72,3.35,3.35,0,0,0-1.37.27,3.1,3.1,0,0,0-1,.76,3.56,3.56,0,0,0-.65,1.14,4.06,4.06,0,0,0-.24,1.39v8h-3Z"/><path class="cls-1" d="M431.35,410.52a7.35,7.35,0,0,1-2.9-.54,6,6,0,0,1-2.15-1.48,6.36,6.36,0,0,1-1.34-2.25,8.89,8.89,0,0,1-.46-2.89,8.79,8.79,0,0,1,.46-2.86,6.27,6.27,0,0,1,1.34-2.25,6.14,6.14,0,0,1,2.15-1.49,8.2,8.2,0,0,1,5.8,0,6.23,6.23,0,0,1,2.15,1.49,6.42,6.42,0,0,1,1.34,2.25,8.79,8.79,0,0,1,.46,2.86,8.89,8.89,0,0,1-.46,2.89,6.51,6.51,0,0,1-1.34,2.25,6.08,6.08,0,0,1-2.15,1.48A7.39,7.39,0,0,1,431.35,410.52Zm0-2.36a3.44,3.44,0,0,0,1.73-.42,3.76,3.76,0,0,0,1.21-1.1,4.9,4.9,0,0,0,.69-1.54,6.7,6.7,0,0,0,.23-1.74,6.86,6.86,0,0,0-.23-1.73,4.8,4.8,0,0,0-.69-1.54,3.81,3.81,0,0,0-1.21-1.08,3.77,3.77,0,0,0-3.46,0,3.81,3.81,0,0,0-1.21,1.08,4.59,4.59,0,0,0-.69,1.54,6.86,6.86,0,0,0-.23,1.73,6.7,6.7,0,0,0,.23,1.74,4.69,4.69,0,0,0,.69,1.54,3.76,3.76,0,0,0,1.21,1.1A3.41,3.41,0,0,0,431.35,408.16Z"/><path class="cls-1" d="M439.09,396.59h2.23v-1.12a5.79,5.79,0,0,1,.31-2.09,3,3,0,0,1,.84-1.23,2.82,2.82,0,0,1,1.19-.58,6.49,6.49,0,0,1,1.41-.14,8.77,8.77,0,0,1,2.1.18v2.33a4,4,0,0,0-.62-.11,5.88,5.88,0,0,0-.77,0,1.77,1.77,0,0,0-1,.29,1.24,1.24,0,0,0-.43,1.12v1.39h2.54v2.23h-2.54v11.33h-3V398.82h-2.23Z"/><path class="cls-1" d="M140.75,422.9h3.48l7.22,18.73h-3.52l-1.76-5H138.7l-1.76,5h-3.38Zm-1.16,11.28h5.72l-2.81-8.05h-.08Z"/><path class="cls-1" d="M154.81,437.28a2.22,2.22,0,0,0,1,1.83,3.93,3.93,0,0,0,2.07.53,7,7,0,0,0,1-.07,3.65,3.65,0,0,0,1-.25,1.75,1.75,0,0,0,.76-.52,1.28,1.28,0,0,0,.29-.84s0-.16,0-.37a1.1,1.1,0,0,0-.41-.68,3,3,0,0,0-1-.59,9.1,9.1,0,0,0-1.4-.38l-1.6-.34a13.76,13.76,0,0,1-1.62-.45,5.21,5.21,0,0,1-1.39-.71,3.1,3.1,0,0,1-1-1.14,3.68,3.68,0,0,1-.37-1.72,3,3,0,0,1,.54-1.84,4.06,4.06,0,0,1,1.36-1.21,5.91,5.91,0,0,1,1.84-.64,10.17,10.17,0,0,1,1.93-.19,9.38,9.38,0,0,1,2,.22,5.67,5.67,0,0,1,1.73.73,4.18,4.18,0,0,1,1.28,1.3,4.5,4.5,0,0,1,.65,1.92h-3.13a1.89,1.89,0,0,0-1-1.44,4.18,4.18,0,0,0-1.77-.37,5.6,5.6,0,0,0-.75.06,3.43,3.43,0,0,0-.81.19,1.7,1.7,0,0,0-.64.42,1,1,0,0,0-.27.72,1.17,1.17,0,0,0,.38.9,3.27,3.27,0,0,0,1,.56,9.1,9.1,0,0,0,1.4.38l1.63.34a14.59,14.59,0,0,1,1.6.45,5.24,5.24,0,0,1,1.4.7,3.25,3.25,0,0,1,1.38,2.81,3.63,3.63,0,0,1-.55,2.05A4.33,4.33,0,0,1,161.9,441a6.66,6.66,0,0,1-2,.76,9.8,9.8,0,0,1-2.13.24,9.27,9.27,0,0,1-2.37-.29,5.5,5.5,0,0,1-1.89-.88,4.26,4.26,0,0,1-1.26-1.47,4.63,4.63,0,0,1-.49-2.08Z"/><path class="cls-1" d="M166,422.9h3v2.84h-3Zm0,5.17h3v13.56h-3Z"/><path class="cls-1" d="M183.32,438.62a1.66,1.66,0,0,0,.14.78.62.62,0,0,0,.57.24h.31a1.76,1.76,0,0,0,.42-.06v2.08l-.41.12-.51.11a4.67,4.67,0,0,1-.52.08l-.45,0a2.83,2.83,0,0,1-1.52-.37,1.85,1.85,0,0,1-.79-1.28,5.27,5.27,0,0,1-2.19,1.25,8.35,8.35,0,0,1-2.5.4,6,6,0,0,1-1.76-.25,4.57,4.57,0,0,1-1.48-.74,3.41,3.41,0,0,1-1-1.23,3.72,3.72,0,0,1-.38-1.74,4.12,4.12,0,0,1,.45-2.05,3.48,3.48,0,0,1,1.21-1.23,5.38,5.38,0,0,1,1.68-.64c.62-.13,1.25-.24,1.88-.31a15.41,15.41,0,0,1,1.54-.22,7.47,7.47,0,0,0,1.3-.22,2,2,0,0,0,.89-.49,1.3,1.3,0,0,0,.33-1,1.48,1.48,0,0,0-.28-.94,1.78,1.78,0,0,0-.68-.57,2.85,2.85,0,0,0-.9-.26,8,8,0,0,0-.94-.07,3.75,3.75,0,0,0-2.08.53,2,2,0,0,0-.92,1.62h-3a4.63,4.63,0,0,1,.63-2.17,4.35,4.35,0,0,1,1.41-1.39,5.77,5.77,0,0,1,1.92-.74,11.58,11.58,0,0,1,2.21-.21,9.19,9.19,0,0,1,2,.21,5.75,5.75,0,0,1,1.75.68,3.94,3.94,0,0,1,1.25,1.22,3.41,3.41,0,0,1,.47,1.83Zm-3-3.78a3.88,3.88,0,0,1-1.68.54c-.67.06-1.33.15-2,.27a6.51,6.51,0,0,0-.92.22,2.79,2.79,0,0,0-.79.4,1.64,1.64,0,0,0-.54.65,2.27,2.27,0,0,0-.19,1,1.27,1.27,0,0,0,.28.84,2.28,2.28,0,0,0,.7.53,3.19,3.19,0,0,0,.89.28,5.86,5.86,0,0,0,.88.08,5.46,5.46,0,0,0,1.08-.13,3.64,3.64,0,0,0,1.08-.45,3,3,0,0,0,.86-.8,2.06,2.06,0,0,0,.34-1.19Z"/><path class="cls-1" d="M186.28,428.07h2.83v2l.06.06a4.87,4.87,0,0,1,1.78-1.77,4.74,4.74,0,0,1,2.44-.65,5,5,0,0,1,3.51,1.16,4.4,4.4,0,0,1,1.29,3.46v9.31h-3v-8.52a3.7,3.7,0,0,0-.68-2.32,2.46,2.46,0,0,0-2-.73,3.27,3.27,0,0,0-1.36.28,2.91,2.91,0,0,0-1,.76,3.54,3.54,0,0,0-.65,1.14,4,4,0,0,0-.24,1.39v8h-3Z"/><path class="cls-1" d="M213.53,422.9H217l7.22,18.73h-3.52l-1.76-5h-7.47l-1.76,5h-3.38Zm-1.15,11.28h5.72l-2.81-8.05h-.08Z"/><path class="cls-1" d="M225.34,428.07h2.83V430h.08A8.43,8.43,0,0,1,229,429a4.22,4.22,0,0,1,.88-.71,5,5,0,0,1,1.12-.46,5.69,5.69,0,0,1,1.44-.17,5,5,0,0,1,2.3.55,3.12,3.12,0,0,1,1.5,1.71A6.27,6.27,0,0,1,238,428.3a4.78,4.78,0,0,1,2.49-.6,4.91,4.91,0,0,1,3.35,1.05,4.5,4.5,0,0,1,1.19,3.52v9.36h-3v-7.92c0-.54,0-1-.05-1.48a3.29,3.29,0,0,0-.3-1.16,1.73,1.73,0,0,0-.75-.74,2.9,2.9,0,0,0-1.37-.27,2.54,2.54,0,0,0-2.2.95,4.54,4.54,0,0,0-.68,2.67v7.95h-3v-8.71a3.68,3.68,0,0,0-.51-2.13,2.14,2.14,0,0,0-1.88-.73,2.71,2.71,0,0,0-1.11.24,2.77,2.77,0,0,0-1,.68,3.41,3.41,0,0,0-.65,1.1,4.14,4.14,0,0,0-.25,1.5v8.05h-3Z"/><path class="cls-1" d="M250.23,435.62a5.19,5.19,0,0,0,.22,1.53,3.72,3.72,0,0,0,.67,1.28,3.29,3.29,0,0,0,1.13.88,3.73,3.73,0,0,0,1.63.33,3.58,3.58,0,0,0,2.11-.57,3.31,3.31,0,0,0,1.19-1.69H260a5.4,5.4,0,0,1-.81,2,5.49,5.49,0,0,1-1.39,1.45,5.84,5.84,0,0,1-1.82.9,7.42,7.42,0,0,1-2.11.3,7.23,7.23,0,0,1-2.84-.53A5.87,5.87,0,0,1,249,440a6.17,6.17,0,0,1-1.29-2.25,9.13,9.13,0,0,1-.43-2.89,8.08,8.08,0,0,1,.46-2.74,7,7,0,0,1,1.31-2.28,6.49,6.49,0,0,1,2.06-1.56,6.15,6.15,0,0,1,2.73-.58,6,6,0,0,1,2.87.67,6.38,6.38,0,0,1,2.11,1.77,7.17,7.17,0,0,1,1.22,2.53,7.89,7.89,0,0,1,.2,2.95Zm7-2a5.33,5.33,0,0,0-.3-1.37,3.86,3.86,0,0,0-.69-1.14,3.27,3.27,0,0,0-1-.78,3,3,0,0,0-1.38-.31,3.65,3.65,0,0,0-1.43.28,3.19,3.19,0,0,0-1.1.76,3.74,3.74,0,0,0-.74,1.14,4.14,4.14,0,0,0-.3,1.42Z"/><path class="cls-1" d="M262.22,428.07H265v2.62h.06a3,3,0,0,1,.51-1.07,4.89,4.89,0,0,1,.92-1,4.26,4.26,0,0,1,1.19-.69,3.49,3.49,0,0,1,1.34-.27,5.64,5.64,0,0,1,.72,0l.41,0v2.89l-.65-.1-.64,0a3.46,3.46,0,0,0-1.43.3,3.35,3.35,0,0,0-1.17.89,4.32,4.32,0,0,0-.78,1.46,6,6,0,0,0-.29,2v6.45h-3Z"/><path class="cls-1" d="M271.27,422.9h3v2.84h-3Zm0,5.17h3v13.56h-3Z"/><path class="cls-1" d="M286.4,432.61a2.8,2.8,0,0,0-1-1.9,3.27,3.27,0,0,0-2.08-.65,4.38,4.38,0,0,0-1.24.2,3,3,0,0,0-1.2.73,4,4,0,0,0-.92,1.5,7,7,0,0,0-.37,2.51,7.4,7.4,0,0,0,.2,1.67,4.58,4.58,0,0,0,.63,1.5,3.41,3.41,0,0,0,1.11,1.06,3.22,3.22,0,0,0,1.66.41,3,3,0,0,0,2.16-.82,3.76,3.76,0,0,0,1.06-2.28h3a6.53,6.53,0,0,1-2,4,6.08,6.08,0,0,1-4.2,1.41,7,7,0,0,1-2.83-.54A6,6,0,0,1,278.3,440a6.29,6.29,0,0,1-1.28-2.21,8.94,8.94,0,0,1-.43-2.78,9.46,9.46,0,0,1,.42-2.86,6.55,6.55,0,0,1,1.26-2.33,5.86,5.86,0,0,1,2.08-1.54,7,7,0,0,1,2.93-.57,8.14,8.14,0,0,1,2.24.3,6.14,6.14,0,0,1,1.89.91,4.82,4.82,0,0,1,1.35,1.52,5.21,5.21,0,0,1,.63,2.18Z"/><path class="cls-1" d="M302.93,438.62a1.66,1.66,0,0,0,.14.78.62.62,0,0,0,.57.24H304a1.76,1.76,0,0,0,.42-.06v2.08l-.41.12-.51.11a4.67,4.67,0,0,1-.52.08l-.45,0a2.83,2.83,0,0,1-1.52-.37,1.85,1.85,0,0,1-.79-1.28A5.27,5.27,0,0,1,298,441.6a8.35,8.35,0,0,1-2.5.4,6,6,0,0,1-1.76-.25,4.57,4.57,0,0,1-1.48-.74,3.41,3.41,0,0,1-1-1.23,3.72,3.72,0,0,1-.38-1.74,4.12,4.12,0,0,1,.45-2.05,3.48,3.48,0,0,1,1.21-1.23,5.38,5.38,0,0,1,1.68-.64c.62-.13,1.25-.24,1.88-.31a15.41,15.41,0,0,1,1.54-.22,7.47,7.47,0,0,0,1.3-.22,2,2,0,0,0,.89-.49,1.3,1.3,0,0,0,.33-1,1.54,1.54,0,0,0-.27-.94,1.81,1.81,0,0,0-.69-.57,2.85,2.85,0,0,0-.9-.26,8,8,0,0,0-.95-.07,3.76,3.76,0,0,0-2.07.53,2,2,0,0,0-.92,1.62h-3A4.63,4.63,0,0,1,292,430a4.35,4.35,0,0,1,1.41-1.39,5.77,5.77,0,0,1,1.92-.74,11.58,11.58,0,0,1,2.21-.21,9.19,9.19,0,0,1,2,.21,5.75,5.75,0,0,1,1.75.68,3.94,3.94,0,0,1,1.25,1.22,3.41,3.41,0,0,1,.47,1.83Zm-3-3.78a3.88,3.88,0,0,1-1.68.54c-.67.06-1.33.15-2,.27a6.86,6.86,0,0,0-.92.22,2.79,2.79,0,0,0-.79.4,1.64,1.64,0,0,0-.54.65,2.27,2.27,0,0,0-.19,1,1.27,1.27,0,0,0,.28.84,2.28,2.28,0,0,0,.7.53,3.19,3.19,0,0,0,.89.28,5.86,5.86,0,0,0,.88.08,5.46,5.46,0,0,0,1.08-.13,3.64,3.64,0,0,0,1.08-.45,2.86,2.86,0,0,0,.86-.8,2.06,2.06,0,0,0,.34-1.19Z"/><path class="cls-1" d="M305.89,428.07h2.83v2l.06.06a4.87,4.87,0,0,1,1.78-1.77,4.74,4.74,0,0,1,2.44-.65,5.08,5.08,0,0,1,3.52,1.16,4.43,4.43,0,0,1,1.28,3.46v9.31h-3v-8.52a3.64,3.64,0,0,0-.68-2.32,2.46,2.46,0,0,0-2-.73,3.27,3.27,0,0,0-1.36.28,2.91,2.91,0,0,0-1,.76,3.54,3.54,0,0,0-.65,1.14,4,4,0,0,0-.24,1.39v8h-3Z"/><path class="cls-1" d="M328.13,422.9h8.27a7.91,7.91,0,0,1,3.25.58,5.11,5.11,0,0,1,1.94,1.44,4.92,4.92,0,0,1,.93,1.89,7.81,7.81,0,0,1,.25,1.89,7.59,7.59,0,0,1-.25,1.87,4.88,4.88,0,0,1-.93,1.88,5,5,0,0,1-1.94,1.43,7.94,7.94,0,0,1-3.25.56h-5v7.19h-3.28Zm3.28,8.87h4.8a4.06,4.06,0,0,0,1.13-.16,3,3,0,0,0,1.06-.51,2.6,2.6,0,0,0,.79-.94,3.29,3.29,0,0,0,.3-1.49,3.74,3.74,0,0,0-.26-1.52,2.31,2.31,0,0,0-.71-.95,2.48,2.48,0,0,0-1-.49,5.46,5.46,0,0,0-1.23-.13h-4.86Z"/><path class="cls-1" d="M345,428.07h2.8v2.62h.06a3.17,3.17,0,0,1,.51-1.07,4.89,4.89,0,0,1,.92-1,4.26,4.26,0,0,1,1.19-.69,3.49,3.49,0,0,1,1.34-.27,5.64,5.64,0,0,1,.72,0l.41,0v2.89l-.65-.1c-.21,0-.43,0-.64,0a3.33,3.33,0,0,0-2.6,1.19,4.32,4.32,0,0,0-.78,1.46,6,6,0,0,0-.29,2v6.45h-3Z"/><path class="cls-1" d="M359.66,442a7.3,7.3,0,0,1-2.89-.54,6,6,0,0,1-3.49-3.74,9.18,9.18,0,0,1,0-5.74,6,6,0,0,1,3.49-3.74,8,8,0,0,1,5.79,0,6.1,6.1,0,0,1,3.49,3.74,9.18,9.18,0,0,1,0,5.74,6.1,6.1,0,0,1-3.49,3.74A7.35,7.35,0,0,1,359.66,442Zm0-2.36a3.45,3.45,0,0,0,1.74-.42,3.72,3.72,0,0,0,1.2-1.1,4.8,4.8,0,0,0,.7-1.54,7,7,0,0,0,0-3.47,4.61,4.61,0,0,0-.7-1.54,3.81,3.81,0,0,0-1.2-1.09,3.79,3.79,0,0,0-3.47,0,3.7,3.7,0,0,0-1.2,1.09,4.61,4.61,0,0,0-.7,1.54,7,7,0,0,0,0,3.47,4.8,4.8,0,0,0,.7,1.54,3.62,3.62,0,0,0,1.2,1.1A3.44,3.44,0,0,0,359.66,439.64Z"/><path class="cls-1" d="M367.4,428.07h2.23v-1.13a5.54,5.54,0,0,1,.32-2.08,2.87,2.87,0,0,1,.84-1.24,2.59,2.59,0,0,1,1.19-.57,6.33,6.33,0,0,1,1.4-.15,8.17,8.17,0,0,1,2.1.19v2.33a5.25,5.25,0,0,0-.62-.12c-.22,0-.47,0-.77,0a1.87,1.87,0,0,0-1,.29,1.3,1.3,0,0,0-.43,1.13v1.39h2.54v2.23h-2.54v11.33h-3V430.3H367.4Z"/><path class="cls-1" d="M379.07,435.62a5.2,5.2,0,0,0,.23,1.53,3.71,3.71,0,0,0,.66,1.28,3.29,3.29,0,0,0,1.13.88,3.73,3.73,0,0,0,1.63.33,3.56,3.56,0,0,0,2.11-.57,3.31,3.31,0,0,0,1.19-1.69h2.84a5.59,5.59,0,0,1-.82,2,5.34,5.34,0,0,1-1.39,1.45,5.84,5.84,0,0,1-1.82.9,7.37,7.37,0,0,1-2.11.3,7.14,7.14,0,0,1-2.83-.53A5.82,5.82,0,0,1,377.8,440a6,6,0,0,1-1.28-2.25,9.13,9.13,0,0,1-.44-2.89,8.34,8.34,0,0,1,.46-2.74,7.34,7.34,0,0,1,1.31-2.28,6.49,6.49,0,0,1,2.06-1.56,6.21,6.21,0,0,1,2.73-.58,6,6,0,0,1,2.87.67,6.38,6.38,0,0,1,2.11,1.77,7.17,7.17,0,0,1,1.22,2.53,7.69,7.69,0,0,1,.2,2.95Zm7-2a4.94,4.94,0,0,0-.3-1.37,3.83,3.83,0,0,0-.68-1.14,3.43,3.43,0,0,0-1.05-.78,3,3,0,0,0-1.38-.31,3.68,3.68,0,0,0-1.43.28,3.28,3.28,0,0,0-1.1.76,3.74,3.74,0,0,0-.74,1.14,4.14,4.14,0,0,0-.3,1.42Z"/><path class="cls-1" d="M393.32,437.28a2.24,2.24,0,0,0,1,1.83,3.94,3.94,0,0,0,2.08.53,6.75,6.75,0,0,0,.95-.07,3.65,3.65,0,0,0,1-.25,1.75,1.75,0,0,0,.76-.52,1.23,1.23,0,0,0,.29-.84s0-.16,0-.37a1.05,1.05,0,0,0-.41-.68,3,3,0,0,0-1-.59,9.1,9.1,0,0,0-1.4-.38l-1.6-.34a13.09,13.09,0,0,1-1.61-.45,4.93,4.93,0,0,1-1.39-.71,3.13,3.13,0,0,1-1-1.14,3.68,3.68,0,0,1-.36-1.72,3,3,0,0,1,.53-1.84,4.09,4.09,0,0,1,1.37-1.21,5.76,5.76,0,0,1,1.83-.64,10.25,10.25,0,0,1,1.93-.19,9.38,9.38,0,0,1,2,.22,5.57,5.57,0,0,1,1.73.73,4.18,4.18,0,0,1,1.28,1.3,4.37,4.37,0,0,1,.65,1.92h-3.13a1.84,1.84,0,0,0-1-1.44,4.11,4.11,0,0,0-1.77-.37,5.6,5.6,0,0,0-.75.06,3.43,3.43,0,0,0-.81.19,1.78,1.78,0,0,0-.64.42,1,1,0,0,0-.26.72,1.14,1.14,0,0,0,.38.9,3.1,3.1,0,0,0,1,.56,8.93,8.93,0,0,0,1.41.38l1.62.34a14.59,14.59,0,0,1,1.6.45,5.31,5.31,0,0,1,1.41.7,3.47,3.47,0,0,1,1,1.13,3.37,3.37,0,0,1,.38,1.68,3.63,3.63,0,0,1-.55,2.05,4.33,4.33,0,0,1-1.43,1.36,6.55,6.55,0,0,1-2,.76,9.8,9.8,0,0,1-2.13.24,9.33,9.33,0,0,1-2.37-.29,5.5,5.5,0,0,1-1.89-.88,4.26,4.26,0,0,1-1.26-1.47,4.62,4.62,0,0,1-.48-2.08Z"/><path class="cls-1" d="M406.67,437.28a2.24,2.24,0,0,0,1,1.83,3.94,3.94,0,0,0,2.08.53,6.75,6.75,0,0,0,.95-.07,3.65,3.65,0,0,0,1-.25,1.75,1.75,0,0,0,.76-.52,1.23,1.23,0,0,0,.29-.84s0-.16,0-.37a1.05,1.05,0,0,0-.41-.68,3,3,0,0,0-1-.59,8.79,8.79,0,0,0-1.4-.38l-1.6-.34a13.09,13.09,0,0,1-1.61-.45,4.93,4.93,0,0,1-1.39-.71,3.23,3.23,0,0,1-1-1.14,3.68,3.68,0,0,1-.36-1.72,3.1,3.1,0,0,1,.53-1.84,4.09,4.09,0,0,1,1.37-1.21,5.76,5.76,0,0,1,1.83-.64,10.25,10.25,0,0,1,1.93-.19,9.38,9.38,0,0,1,2,.22,5.57,5.57,0,0,1,1.73.73,4.08,4.08,0,0,1,1.28,1.3,4.37,4.37,0,0,1,.65,1.92h-3.12a1.87,1.87,0,0,0-1-1.44,4.11,4.11,0,0,0-1.77-.37,5.6,5.6,0,0,0-.75.06,3.68,3.68,0,0,0-.81.19,1.78,1.78,0,0,0-.64.42,1,1,0,0,0-.26.72,1.14,1.14,0,0,0,.38.9,3.1,3.1,0,0,0,1,.56,8.93,8.93,0,0,0,1.41.38l1.62.34a14.59,14.59,0,0,1,1.6.45,5.31,5.31,0,0,1,1.41.7,3.47,3.47,0,0,1,1,1.13,3.37,3.37,0,0,1,.38,1.68,3.63,3.63,0,0,1-.55,2.05,4.33,4.33,0,0,1-1.43,1.36,6.45,6.45,0,0,1-1.95.76,9.8,9.8,0,0,1-2.13.24,9.38,9.38,0,0,1-2.37-.29,5.58,5.58,0,0,1-1.89-.88,4.26,4.26,0,0,1-1.26-1.47,4.62,4.62,0,0,1-.48-2.08Z"/><path class="cls-1" d="M417.84,422.9h3v2.84h-3Zm0,5.17h3v13.56h-3Z"/><path class="cls-1" d="M430,442a7.39,7.39,0,0,1-2.9-.54A6.21,6.21,0,0,1,425,440a6.31,6.31,0,0,1-1.34-2.26,9.18,9.18,0,0,1,0-5.74,6.31,6.31,0,0,1,1.34-2.26,6.21,6.21,0,0,1,2.15-1.48,8.06,8.06,0,0,1,5.8,0,6.21,6.21,0,0,1,2.15,1.48,6.46,6.46,0,0,1,1.34,2.26,9.38,9.38,0,0,1,0,5.74,6.46,6.46,0,0,1-1.34,2.26,6.21,6.21,0,0,1-2.15,1.48A7.39,7.39,0,0,1,430,442Zm0-2.36a3.44,3.44,0,0,0,1.73-.42,3.76,3.76,0,0,0,1.21-1.1,5,5,0,0,0,.69-1.54,7,7,0,0,0,0-3.47,4.8,4.8,0,0,0-.69-1.54,3.84,3.84,0,0,0-1.21-1.09,3.77,3.77,0,0,0-3.46,0,3.84,3.84,0,0,0-1.21,1.09,4.59,4.59,0,0,0-.69,1.54,6.66,6.66,0,0,0,0,3.47,4.78,4.78,0,0,0,.69,1.54,3.76,3.76,0,0,0,1.21,1.1A3.44,3.44,0,0,0,430,439.64Z"/><path class="cls-1" d="M439.12,428.07H442v2l.05.06a5,5,0,0,1,1.78-1.77,4.76,4.76,0,0,1,2.44-.65,5.08,5.08,0,0,1,3.52,1.16,4.43,4.43,0,0,1,1.28,3.46v9.31h-3v-8.52a3.64,3.64,0,0,0-.68-2.32,2.45,2.45,0,0,0-2-.73,3.3,3.3,0,0,0-1.36.28,3,3,0,0,0-1,.76,3.56,3.56,0,0,0-.66,1.14,4,4,0,0,0-.24,1.39v8h-3Z"/><path class="cls-1" d="M465.27,438.62a1.55,1.55,0,0,0,.14.78.6.6,0,0,0,.56.24h.32a1.76,1.76,0,0,0,.42-.06v2.08l-.41.12-.51.11a5.06,5.06,0,0,1-.52.08l-.45,0a2.83,2.83,0,0,1-1.52-.37,1.81,1.81,0,0,1-.79-1.28,5.27,5.27,0,0,1-2.19,1.25,8.35,8.35,0,0,1-2.5.4,6,6,0,0,1-1.76-.25,4.57,4.57,0,0,1-1.48-.74,3.53,3.53,0,0,1-1-1.23,3.84,3.84,0,0,1-.38-1.74,4.12,4.12,0,0,1,.46-2.05,3.48,3.48,0,0,1,1.21-1.23,5.38,5.38,0,0,1,1.68-.64c.62-.13,1.24-.24,1.87-.31a15.6,15.6,0,0,1,1.55-.22,7.47,7.47,0,0,0,1.3-.22,2,2,0,0,0,.89-.49,1.3,1.3,0,0,0,.33-1,1.48,1.48,0,0,0-.28-.94,1.78,1.78,0,0,0-.68-.57,2.85,2.85,0,0,0-.9-.26,8.18,8.18,0,0,0-1-.07,3.74,3.74,0,0,0-2.07.53,2,2,0,0,0-.92,1.62h-3a4.22,4.22,0,0,1,2-3.56,5.83,5.83,0,0,1,1.93-.74,11.5,11.5,0,0,1,2.21-.21,9.19,9.19,0,0,1,2,.21,5.75,5.75,0,0,1,1.75.68,3.91,3.91,0,0,1,1.24,1.22,3.33,3.33,0,0,1,.48,1.83Zm-3-3.78a3.88,3.88,0,0,1-1.68.54c-.67.06-1.33.15-2,.27a7.24,7.24,0,0,0-.92.22,2.87,2.87,0,0,0-.78.4,1.64,1.64,0,0,0-.54.65,2.27,2.27,0,0,0-.2,1,1.28,1.28,0,0,0,.29.84,2.28,2.28,0,0,0,.7.53,3.19,3.19,0,0,0,.89.28,5.86,5.86,0,0,0,.88.08,5.28,5.28,0,0,0,1.07-.13,3.59,3.59,0,0,0,1.09-.45,2.83,2.83,0,0,0,.85-.8,2,2,0,0,0,.35-1.19Z"/><path class="cls-1" d="M468.31,422.9h3v18.73h-3Z"/><path class="cls-1" d="M476.55,437.28a2.24,2.24,0,0,0,1,1.83,3.93,3.93,0,0,0,2.07.53,7,7,0,0,0,1-.07,3.65,3.65,0,0,0,1-.25,1.75,1.75,0,0,0,.76-.52,1.23,1.23,0,0,0,.29-.84s0-.16,0-.37a1.1,1.1,0,0,0-.41-.68,3,3,0,0,0-1-.59,9.1,9.1,0,0,0-1.4-.38l-1.6-.34a13.76,13.76,0,0,1-1.62-.45,5.21,5.21,0,0,1-1.39-.71,3.2,3.2,0,0,1-1-1.14,3.68,3.68,0,0,1-.37-1.72,3,3,0,0,1,.54-1.84,4,4,0,0,1,1.37-1.21,5.76,5.76,0,0,1,1.83-.64,10.25,10.25,0,0,1,1.93-.19,9.38,9.38,0,0,1,2,.22,5.57,5.57,0,0,1,1.73.73,4.18,4.18,0,0,1,1.28,1.3,4.5,4.5,0,0,1,.65,1.92h-3.13a1.86,1.86,0,0,0-1-1.44,4.18,4.18,0,0,0-1.77-.37,5.6,5.6,0,0,0-.75.06,3.43,3.43,0,0,0-.81.19,1.78,1.78,0,0,0-.64.42,1,1,0,0,0-.27.72,1.17,1.17,0,0,0,.38.9,3.27,3.27,0,0,0,1,.56,9.1,9.1,0,0,0,1.4.38l1.63.34a14.59,14.59,0,0,1,1.6.45,5.31,5.31,0,0,1,1.41.7,3.28,3.28,0,0,1,1.37,2.81,3.63,3.63,0,0,1-.55,2.05,4.33,4.33,0,0,1-1.43,1.36,6.66,6.66,0,0,1-1.95.76,9.8,9.8,0,0,1-2.13.24,9.33,9.33,0,0,1-2.37-.29,5.5,5.5,0,0,1-1.89-.88,4.26,4.26,0,0,1-1.26-1.47,4.5,4.5,0,0,1-.48-2.08Z"/><path class="cls-1" d="M234.33,299.65v74.71H232l-49.94-75h-.22v72.2h12.83v2.84h-27v-2.84H179V299.65h-12v-2.88h29l35.35,53.16h.23V299.65H218.89v-2.88h26.92v2.88Z"/><path class="cls-1" d="M274.2,350.76H250.1l-7.75,20.76h14v2.88H232l-1.91-2.88h9.25L267,296.8h1.75l26.53,74.72.29.7,3.15.86-22.42.67.94-1,4.35-1.24Zm-23-2.88h22L262.48,317.5h-.22Z"/><path class="cls-1" d="M364.07,350.76H340l-7.75,20.76,7.39,1.06,4.15,1-23.29.23,8-1.76.77-.52,27.66-74.72h1.75l26.53,74.72h10.18v2.88H359.21v-2.88h12.27Zm-23-2.88h22L352.37,317.5h-.23Z"/><path class="cls-1" d="M407.21,338.87v32.58h12.56v2.95H381.11v-2.95h12.33V299.76H381.11v-2.95h40q13.54,0,20.4,6a19,19,0,0,1,6.85,14.82,19.36,19.36,0,0,1-6.92,15.13q-6.9,6.11-23,6.1Zm0-39.11v36.1h7.47a40.72,40.72,0,0,0,9.72-1,11.49,11.49,0,0,0,6.68-5.21,22.58,22.58,0,0,0,3.76-12.86,21.28,21.28,0,0,0-3.41-11.7,10,10,0,0,0-5.82-4.51,34.94,34.94,0,0,0-8.33-.84Z"/><path class="cls-2" d="M319.13,350.76H295l-7.75,20.76h14v2.88H273.83v-2.88H284.3L312,296.8h1.75l26.53,74.72h10.18v2.88H314.27v-2.88h12.27Zm-23-2.88h22L307.42,317.5h-.22Z"/></svg>